<svg xmlns="http://www.w3.org/2000/svg" viewBox="0 0 64 64">
  <defs>
    <linearGradient id="sfisIconGradient" x1="8" y1="8" x2="56" y2="56" gradientUnits="userSpaceOnUse">
      <stop offset="0" stop-color="#33f1c2"/>
      <stop offset="1" stop-color="#f0bd4f"/>
    </linearGradient>
  </defs>
  <rect width="64" height="64" rx="14" fill="#07110f"/>
  <path d="M13 47V17h38v30H13Z" fill="none" stroke="url(#sfisIconGradient)" stroke-width="4"/>
  <path d="M21 42V24h8.5c4.2 0 6.9 2.2 6.9 5.8 0 3.5-2.7 5.8-6.9 5.8H26v6.4h-5Zm5-10.5h3.1c1.5 0 2.4-.6 2.4-1.8 0-1.1-.9-1.7-2.4-1.7H26v3.5Z" fill="#f7fff7"/>
  <path d="M38 42V24h12v4.2h-7v3.1h6.1v4H43V42h-5Z" fill="#f7fff7"/>
  <path d="M16 16 32 7l16 9" fill="none" stroke="#f0bd4f" stroke-width="4" stroke-linecap="round" stroke-linejoin="round"/>
</svg>
